<?xml version="1.0" encoding="utf-8"?>
<!-- Generator: Adobe Illustrator 16.0.0, SVG Export Plug-In . SVG Version: 6.00 Build 0)  -->
<!DOCTYPE svg PUBLIC "-//W3C//DTD SVG 1.1//EN" "http://www.w3.org/Graphics/SVG/1.1/DTD/svg11.dtd">
<svg version="1.1" id="Layer_1" xmlns="http://www.w3.org/2000/svg" xmlns:xlink="http://www.w3.org/1999/xlink" x="0px" y="0px"
	 width="120px" height="24px" viewBox="0 0 120 24" enable-background="new 0 0 120 24" xml:space="preserve">
<path fill="#686868" d="M17.384,17.705c0,0.357-0.125,0.661-0.375,0.911l-1.821,1.821c-0.25,0.25-0.554,0.375-0.911,0.375
	s-0.661-0.125-0.911-0.375l-3.938-3.938L5.49,20.438c-0.25,0.25-0.554,0.375-0.911,0.375s-0.661-0.125-0.911-0.375l-1.821-1.821
	c-0.25-0.25-0.375-0.554-0.375-0.911s0.125-0.661,0.375-0.911l3.938-3.938L1.847,8.918c-0.25-0.25-0.375-0.554-0.375-0.911
	s0.125-0.661,0.375-0.911l1.821-1.821C3.918,5.025,4.222,4.9,4.579,4.9S5.24,5.025,5.49,5.275l3.938,3.938l3.938-3.938
	c0.25-0.25,0.553-0.375,0.911-0.375s0.661,0.125,0.911,0.375l1.821,1.821c0.25,0.25,0.375,0.553,0.375,0.911
	s-0.125,0.661-0.375,0.911l-3.938,3.938l3.938,3.938C17.259,17.044,17.384,17.348,17.384,17.705z M57.938,21.066l-8.732-8.718
	c-0.331-0.331-0.496-0.735-0.496-1.212c0-0.477,0.166-0.881,0.496-1.212l8.732-8.719c0.331-0.331,0.735-0.496,1.212-0.496
	c0.478,0,0.881,0.166,1.212,0.496l1.004,1.004c0.331,0.331,0.495,0.735,0.495,1.212c0,0.478-0.164,0.881-0.495,1.212l-6.509,6.509
	l6.509,6.497c0.331,0.339,0.495,0.745,0.495,1.219c0,0.473-0.164,0.875-0.495,1.205l-1.004,1.004
	c-0.331,0.33-0.734,0.496-1.212,0.496C58.673,21.563,58.269,21.396,57.938,21.066L57.938,21.066z M110.719,11.143
	c0,0.464-0.165,0.87-0.496,1.219l-8.731,8.719c-0.331,0.331-0.732,0.496-1.205,0.496s-0.874-0.165-1.205-0.496l-1.019-1.004
	c-0.33-0.349-0.496-0.755-0.496-1.22c0-0.473,0.166-0.875,0.496-1.205l6.51-6.508l-6.51-6.496c-0.33-0.348-0.496-0.754-0.496-1.219
	c0-0.474,0.166-0.875,0.496-1.205l1.019-1.004c0.321-0.339,0.724-0.509,1.205-0.509s0.884,0.17,1.205,0.509l8.731,8.719
	C110.554,10.27,110.719,10.671,110.719,11.143L110.719,11.143z"/>
</svg>
